<svg width="23" height="23" viewBox="0 0 23 23" fill="none" xmlns="http://www.w3.org/2000/svg">
<path d="M17.0999 5.63253C16.8632 5.63253 16.6713 5.44065 16.6713 5.20396C16.6713 4.96727 16.8632 4.77539 17.0999 4.77539" stroke="#12132A" stroke-width="1.7143" stroke-linecap="round" stroke-linejoin="round"/>
<path d="M17.0999 5.63253C17.3367 5.63253 17.5285 5.44065 17.5285 5.20396C17.5285 4.96727 17.3367 4.77539 17.0999 4.77539" stroke="#12132A" stroke-width="1.7143" stroke-linecap="round" stroke-linejoin="round"/>
<path d="M0.857178 5.26802C0.857178 2.83197 2.83199 0.857147 5.26806 0.857147H17.0305C19.4665 0.857147 21.4413 2.83197 21.4413 5.26802V17.0304C21.4413 19.4664 19.4665 21.4413 17.0305 21.4413H5.26806C2.83199 21.4413 0.857178 19.4664 0.857178 17.0304V5.26802Z" stroke="#12132A" stroke-width="1.7143" stroke-linecap="round" stroke-linejoin="round"/>
<path d="M7.11059 12.8219C6.8909 12.2916 6.77783 11.7231 6.77783 11.149C6.77783 9.98967 7.23839 8.87778 8.05819 8.05798C8.878 7.23818 9.98989 6.77762 11.1493 6.77762C12.3086 6.77762 13.4205 7.23818 14.2403 8.05798C15.0601 8.87778 15.5207 9.98967 15.5207 11.149C15.5207 11.7231 15.4076 12.2916 15.1879 12.8219C14.9682 13.3523 14.6463 13.8342 14.2403 14.2401C13.8344 14.646 13.3525 14.968 12.8221 15.1877C12.2918 15.4074 11.7233 15.5205 11.1493 15.5205C10.5752 15.5205 10.0068 15.4074 9.47639 15.1877C8.94602 14.968 8.46412 14.646 8.05819 14.2401C7.65227 13.8342 7.33027 13.3523 7.11059 12.8219Z" stroke="#12132A" stroke-width="1.7143" stroke-linecap="round" stroke-linejoin="round"/>
</svg>
