<svg width="486" height="95" viewBox="0 0 486 95" fill="none" xmlns="http://www.w3.org/2000/svg">
<g clip-path="url(#clip0_13_1148)">
<g clip-path="url(#clip1_13_1148)">
<path d="M11.0195 0.0234375L10.9219 22.0547C11.0938 24.2148 12.3047 25.4023 14.5469 25.625L36.3047 25.6523L36.3398 35.7266H11.6719C3.85157 35.3359 0.00391016 30.8555 0.117191 22.2852L0.230472 0.0234375H11.0195Z" fill="#449AD3"/>
<path d="M50.6875 12.1953C50.6836 13.1445 50.7109 16.4062 50.7109 16.4062H66.5664C66.5664 16.4062 66.582 13.7539 66.5938 13.0078C66.6406 10.0273 66.0039 8.39844 63.2812 8.39844L54.1797 8.42578C51.6406 8.49219 50.6992 9.64453 50.6875 12.1953ZM40.8242 35.7266L40.8828 11.4297C41.2891 4.13281 45.3203 0.324219 52.9727 0L65.0391 0.0273442C72.0742 0.5 75.7266 4.27734 76.0039 11.3555L75.9961 35.7148H66.6172V24.9102L50.668 24.8359L50.6602 35.7266H40.8242Z" fill="#F6B230"/>
<path d="M10.9102 71.9648L23.168 71.9883C25.1172 71.9219 26.1523 71.1953 26.2656 69.8125C26.3789 68.4297 25.3242 67.0156 23.1758 67.0156H10.8984L10.9102 71.9648ZM10.8867 85.2344C10.8867 85.2344 20.0156 85.2266 23.207 85.207C25.168 85.1953 26.207 84.4609 26.3164 83.0664C26.4297 81.6758 25.3242 80.3047 23.082 80.3047C19.1328 80.3047 10.9023 80.293 10.9023 80.293L10.8867 85.2344ZM0.0625 58.25H24.7773C31.6875 58.8125 35.457 61.9063 36.0859 67.5352C36.3086 71.0664 35.4727 73.7734 33.5781 75.6523C36.4219 77.2539 37.7461 80.2695 37.543 84.6953C37.1836 91 32.793 94.1133 24.3711 94.0273L0 94.0547L0.0625 58.25Z" fill="#08964B"/>
<path d="M75.9609 94.0547H50.7734C43.5117 93.625 39.8789 87.6445 39.875 76.125C39.875 64.6133 43.7578 58.668 51.5234 58.2734H75.9844L75.9766 66.9727C75.9766 66.9727 59.7266 66.9805 54.2891 66.9961C52.4492 67.0039 51.3242 66.6914 50.8945 68.832C50.7148 69.7266 50.6836 72.0352 50.6836 72.0352H75.9531L75.9805 80.3203H50.7422C50.7422 80.3203 50.7539 81.6875 50.8008 82.1055C51 83.8164 51.6562 85.2148 53.3008 85.2148H75.9766L75.9609 94.0547Z" fill="#E22447"/>
<path d="M3.19922 46.0352C3.19922 46.3359 3.19922 47.1172 3.19922 47.1172H8.24219C8.24219 47.1172 8.23438 46.3086 8.23828 46.0742C8.24219 44.8945 8.07813 44.8516 7.35156 44.8516C6.59766 44.8516 4.32422 44.8594 4.32422 44.8594C3.40234 44.8594 3.20703 44.9883 3.19922 46.0352ZM0.0859375 53.3672L0.117188 45.6719C0.249999 43.3555 1.53125 42.168 3.95313 42.0664L7.77344 42.0742C10 42.2227 11.1523 43.4023 11.2344 45.6484L11.2031 53.3828H8.20313L8.22266 49.9414L3.20703 49.918L3.19531 53.3672H0.0859375Z" fill="#221E53"/>
<path d="M68.0195 46.0352C68.0195 46.3359 68.0234 47.1172 68.0234 47.1172H73.0625C73.0625 47.1172 73.0586 46.3086 73.0586 46.0742C73.0586 44.8945 72.8945 44.8516 72.168 44.8516C71.4141 44.8516 69.1406 44.8594 69.1406 44.8594C68.2187 44.8594 68.0273 44.9883 68.0195 46.0352ZM64.9258 53.3906L64.9375 45.6719C65.0625 43.3555 66.3398 42.168 68.7617 42.0664L72.582 42.0742C74.8086 42.2227 75.9648 43.4023 76.0508 45.6484L76.043 53.3828H73.043L73.0508 49.9414L68.0352 49.918V53.3906H64.9258Z" fill="#221E53"/>
<path d="M19.7617 46.8828L23.9102 46.8906C24.543 46.8789 24.8789 46.5742 24.9141 45.9727C24.9492 45.375 24.6094 44.957 23.9297 44.8516H19.7461L19.7617 46.8828ZM16.3516 42.0938H24.1641C26.5664 42.4883 27.8125 43.7695 27.9023 45.9375C28.0234 47.5273 27.5195 48.7812 26.3828 49.707L28.2969 53.3906H24.5312L22.6836 49.8711H19.6914L19.6836 53.3906L16.3008 53.3984L16.3516 42.0938Z" fill="#221E53"/>
<path d="M43.6523 53.3984H35.707C33.4141 53.2656 32.2695 51.3828 32.2695 47.75C32.2695 44.1211 33.4961 42.2422 35.9492 42.1211H43.6758L43.668 44.8633L36.8203 44.8711C36.2383 44.8516 35.9062 44.9961 35.8242 45.3086L35.6445 46.2773L43.3984 46.2852L43.3711 48.9961L35.6797 48.9648L35.7031 49.582C35.7227 50.1211 36.043 50.4336 36.4141 50.4766L43.6562 50.4688L43.6523 53.3984Z" fill="#221E53"/>
<path d="M49.0977 53.3906L49.1211 42.0859H56.7812C58.9922 42.0391 60.1523 43.2422 60.2695 45.6953L60.2578 53.3906H57.2539L57.3125 45.8789C57.375 45.1445 57.0703 44.8047 56.3984 44.8516H52.2266L52.2148 53.3906H49.0977Z" fill="#221E53"/>
<path d="M37.4141 40.875H40.5312L43.2695 38.6523H38.8086L37.4141 40.875Z" fill="#221E53"/>
<path d="M121.006 38.5771H109.037V19.9052H111.818V36.624H121.006V38.5771Z" fill="#D02144"/>
<path d="M140.186 38.5771H137.279L135.154 32.9052H127.154L125.045 38.5771H122.295L129.717 19.9052H132.936L140.186 38.5771ZM134.451 30.9834L131.295 22.5615H131.029L127.873 30.9834H134.451Z" fill="#D02144"/>
<path d="M156.802 31.7334V34.874C156.802 36.2294 156.279 37.1865 155.24 37.749C154.209 38.3037 152.525 38.5771 150.193 38.5771H143.318V19.9052H149.99C151.591 19.9052 152.849 20.0732 153.755 20.4052C154.67 20.7294 155.271 21.1318 155.552 21.6084C155.834 22.0888 155.974 22.7021 155.974 23.4521V25.9521C155.974 26.7138 155.755 27.2959 155.318 27.7021C154.888 28.1084 154.255 28.4052 153.412 28.5927V28.7177C154.412 28.8857 155.224 29.2294 155.849 29.749C156.482 30.2724 156.802 30.9326 156.802 31.7334ZM153.349 25.8584V23.6709C153.349 22.9638 153.088 22.4677 152.568 22.1865C152.056 21.8974 151.197 21.749 149.99 21.749H146.099V28.0771H150.068C151.255 28.0771 152.099 27.9013 152.599 27.5459C153.099 27.1943 153.349 26.6318 153.349 25.8584ZM154.005 34.749V31.9365C154.005 31.4365 153.904 31.0419 153.709 30.749C153.509 30.4482 153.193 30.2334 152.755 30.1084C152.326 29.9834 151.947 29.9052 151.615 29.874C151.279 29.8427 150.806 29.8271 150.193 29.8271H146.099V36.6552H150.193C151.588 36.6552 152.572 36.5107 153.146 36.2177C153.716 35.9287 154.005 35.4365 154.005 34.749Z" fill="#D02144"/>
<path d="M173.594 32.249V33.6084C173.594 35.6005 173.024 36.9755 171.891 37.7334C170.766 38.4834 169.004 38.8584 166.61 38.8584C165.079 38.8584 163.176 38.706 160.907 38.4052V36.0771C163.176 36.5576 165.133 36.7959 166.782 36.7959C168.102 36.7959 169.114 36.6513 169.813 36.3584C170.508 36.0576 170.86 35.4521 170.86 34.5459V32.1396C170.86 31.3505 170.633 30.788 170.188 30.4521C169.739 30.1201 168.93 29.9521 167.766 29.9521H165.579C163.692 29.9521 162.379 29.5732 161.641 28.8115C160.899 28.0537 160.532 26.9365 160.532 25.4677V23.9677C160.532 22.4912 161.051 21.3974 162.094 20.6865C163.145 19.9794 165.071 19.624 167.875 19.624C169.219 19.624 170.817 19.7294 172.672 19.9365V22.0302C170.547 21.7099 168.879 21.5459 167.672 21.5459C165.891 21.5459 164.708 21.7255 164.125 22.0771C163.54 22.4326 163.25 23.0302 163.25 23.874V25.999C163.25 26.6552 163.477 27.1357 163.938 27.4365C164.395 27.7294 165.208 27.874 166.375 27.874H168.625C170.563 27.874 171.875 28.2294 172.563 28.9365C173.25 29.6357 173.594 30.7412 173.594 32.249Z" fill="#D02144"/>
<path d="M193.277 38.5771H189.652L180.73 28.6552L189.074 19.9052H192.433L184.043 28.5302L193.277 38.5771ZM180.668 38.5771H177.886V19.9052H180.668V38.5771Z" fill="#D02144"/>
<path d="M211.594 38.5771H208.688L206.563 32.9052H198.563L196.454 38.5771H193.704L201.126 19.9052H204.344L211.594 38.5771ZM205.86 30.9834L202.704 22.5615H202.438L199.282 30.9834H205.86ZM206.751 14.7021L203.157 18.3584H201.032L203.626 14.7021H206.751Z" fill="#D02144"/>
<path d="M237.535 38.5771H234.629L232.504 32.9052H224.504L222.395 38.5771H219.645L227.066 19.9052H230.285L237.535 38.5771ZM231.801 30.9834L228.645 22.5615H228.379L225.223 30.9834H231.801Z" fill="#D02144"/>
<path d="M256.058 38.5771H252.433L243.511 28.6552L251.855 19.9052H255.214L246.824 28.5302L256.058 38.5771ZM243.449 38.5771H240.667V19.9052H243.449V38.5771Z" fill="#D02144"/>
<path d="M274.375 38.5771H271.469L269.344 32.9052H261.344L259.235 38.5771H256.485L263.907 19.9052H267.125L274.375 38.5771ZM268.641 30.9834L265.485 22.5615H265.219L262.063 30.9834H268.641Z" fill="#D02144"/>
<path d="M292.773 25.2646V33.5146C292.773 36.8896 290.164 38.5771 284.945 38.5771H277.508V19.9052H284.93C290.156 19.9052 292.773 21.6943 292.773 25.2646ZM290.101 33.4521V25.2334C290.101 24.5263 289.953 23.9365 289.664 23.4677C289.383 22.9912 288.976 22.6396 288.445 22.4209C287.922 22.2021 287.383 22.0537 286.82 21.9677C286.266 21.8857 285.625 21.8427 284.898 21.8427H280.289V36.6709H284.758C288.32 36.6709 290.101 35.6005 290.101 33.4521Z" fill="#D02144"/>
<path d="M310.151 38.5771H297.323V19.9052H309.854V21.8584H300.104V27.9677H308.916V29.9209H300.104V36.624H310.151V38.5771Z" fill="#D02144"/>
<path d="M334.212 38.5771H331.775V22.7802H331.634L325.619 38.5771H323.119L316.931 22.7802H316.791V38.5771H314.291V19.9052H318.462L324.447 35.4365L324.525 35.4677L330.197 19.9052H334.212V38.5771Z" fill="#D02144"/>
<path d="M342.121 38.5771H339.34V19.9052H342.121V38.5771Z" fill="#D02144"/>
<path d="M360.077 38.5771H347.248V19.9052H359.78V21.8584H350.03V27.9677H358.842V29.9209H350.03V36.624H360.077V38.5771Z" fill="#D02144"/>
<path d="M129.365 55.0729L120.147 78.2448H116.147L107.147 55.0729H110.756L118.178 74.9635H118.506L125.928 55.0729H129.365Z" fill="#468ABD"/>
<path d="M157.025 78.2448H141.104V55.0729H156.666V57.4948H144.572V65.0729H155.494V67.4948H144.572V75.8229H157.025V78.2448Z" fill="#468ABD"/>
<path d="M185.365 70.3854V72.0729C185.365 74.5416 184.662 76.2526 183.256 77.1979C181.857 78.1354 179.67 78.6041 176.693 78.6041C174.787 78.6041 172.431 78.4088 169.631 78.026V75.1354C172.431 75.7291 174.857 76.026 176.912 76.026C178.556 76.026 179.81 75.8463 180.677 75.4791C181.541 75.1041 181.974 74.3619 181.974 73.2448V70.2448C181.974 69.2682 181.693 68.569 181.131 68.151C180.576 67.7369 179.576 67.526 178.131 67.526H175.412C173.076 67.526 171.451 67.0573 170.537 66.1198C169.619 65.1823 169.162 63.7994 169.162 61.9635V60.1041C169.162 58.2721 169.806 56.9166 171.099 56.0416C172.4 55.1588 174.791 54.7135 178.271 54.7135C179.935 54.7135 181.92 54.8463 184.224 55.1041V57.7135C181.588 57.3073 179.521 57.1041 178.021 57.1041C175.802 57.1041 174.326 57.3307 173.599 57.776C172.881 58.2135 172.521 58.9557 172.521 59.9948V62.6354C172.521 63.4479 172.806 64.0416 173.381 64.4166C173.951 64.7838 174.963 64.9635 176.412 64.9635H179.193C181.599 64.9635 183.228 65.401 184.084 66.276C184.935 67.1432 185.365 68.5104 185.365 70.3854Z" fill="#468ABD"/>
<path d="M213.406 78.2448H198.546V55.0729H202.015V75.8229H213.406V78.2448Z" fill="#468ABD"/>
<path d="M244.213 61.3229V72.3229C244.213 73.5846 243.904 74.6588 243.291 75.5416C242.685 76.4166 241.857 77.0651 240.806 77.4791C239.763 77.8971 238.732 78.1901 237.713 78.3541C236.689 78.5182 235.58 78.6041 234.384 78.6041C227.916 78.6041 224.681 76.5104 224.681 72.3229V61.3541C224.681 56.9283 227.916 54.7135 234.384 54.7135C240.935 54.7135 244.213 56.9166 244.213 61.3229ZM240.853 72.276V61.2448C240.853 58.3932 238.713 56.9635 234.431 56.9635C233.525 56.9635 232.72 57.0221 232.025 57.1354C231.338 57.2408 230.67 57.444 230.025 57.7448C229.388 58.0377 228.888 58.4752 228.525 59.0573C228.17 59.6432 227.994 60.3698 227.994 61.2448V72.276C227.994 74.944 230.15 76.276 234.463 76.276C238.72 76.276 240.853 74.944 240.853 72.276Z" fill="#468ABD"/>
<path d="M277.524 55.0729L268.305 78.2448H264.305L255.305 55.0729H258.915L266.337 74.9635H266.665L274.087 55.0729H277.524Z" fill="#468ABD"/>
<path d="M309.012 78.2448H305.403L302.762 71.2135H292.825L290.231 78.2448H286.793L296.012 55.0729H300.012L309.012 78.2448ZM301.903 68.8229L297.965 58.3541H297.653L293.731 68.8229H301.903ZM303.012 48.6041L298.543 53.151H295.903L299.122 48.6041H303.012Z" fill="#468ABD"/>
<path d="M340.563 78.2448H336.391L323.782 58.7916V78.2448H320.75V55.0729H324.922L337.532 74.2135V55.0729H340.563V78.2448Z" fill="#468ABD"/>
<path d="M358.242 78.2448H354.773V55.0729H358.242V78.2448ZM361.883 48.6041L357.414 53.151H354.773L357.992 48.6041H361.883Z" fill="#468ABD"/>
</g>
<g clip-path="url(#clip2_13_1148)">
<path d="M420.902 0.0234375L420.805 22.0547C420.976 24.2148 422.187 25.4023 424.43 25.625L446.187 25.6523L446.223 35.7266H421.555C413.734 35.3359 409.887 30.8555 410 22.2852L410.113 0.0234375H420.902Z" fill="#449AD3"/>
<path d="M460.57 12.1953C460.566 13.1445 460.594 16.4062 460.594 16.4062H476.449C476.449 16.4062 476.465 13.7539 476.476 13.0078C476.523 10.0273 475.887 8.39844 473.164 8.39844L464.062 8.42578C461.523 8.49219 460.582 9.64453 460.57 12.1953ZM450.707 35.7266L450.766 11.4297C451.172 4.13281 455.203 0.324219 462.855 0L474.922 0.0273442C481.957 0.5 485.609 4.27734 485.887 11.3555L485.879 35.7148H476.5V24.9102L460.551 24.8359L460.543 35.7266H450.707Z" fill="#F6B230"/>
<path d="M420.793 71.9648L433.051 71.9883C435 71.9219 436.035 71.1953 436.148 69.8125C436.262 68.4297 435.207 67.0156 433.058 67.0156H420.781L420.793 71.9648ZM420.769 85.2344C420.769 85.2344 429.898 85.2266 433.09 85.207C435.051 85.1953 436.09 84.4609 436.199 83.0664C436.312 81.6758 435.207 80.3047 432.965 80.3047C429.016 80.3047 420.785 80.293 420.785 80.293L420.769 85.2344ZM409.945 58.25H434.66C441.57 58.8125 445.34 61.9063 445.969 67.5352C446.191 71.0664 445.355 73.7734 443.461 75.6523C446.305 77.2539 447.629 80.2695 447.426 84.6953C447.066 91 442.676 94.1133 434.254 94.0273L409.883 94.0547L409.945 58.25Z" fill="#08964B"/>
<path d="M485.844 94.0547H460.656C453.394 93.625 449.762 87.6445 449.758 76.125C449.758 64.6133 453.641 58.668 461.406 58.2734H485.867L485.859 66.9727C485.859 66.9727 469.609 66.9805 464.172 66.9961C462.332 67.0039 461.207 66.6914 460.777 68.832C460.598 69.7266 460.566 72.0352 460.566 72.0352H485.836L485.863 80.3203H460.625C460.625 80.3203 460.637 81.6875 460.683 82.1055C460.883 83.8164 461.539 85.2148 463.183 85.2148H485.859L485.844 94.0547Z" fill="#E22447"/>
<path d="M413.082 46.0352C413.082 46.3359 413.082 47.1172 413.082 47.1172H418.125C418.125 47.1172 418.117 46.3086 418.121 46.0742C418.125 44.8945 417.961 44.8516 417.234 44.8516C416.48 44.8516 414.207 44.8594 414.207 44.8594C413.285 44.8594 413.09 44.9883 413.082 46.0352ZM409.969 53.3672L410 45.6719C410.133 43.3555 411.414 42.168 413.836 42.0664L417.656 42.0742C419.883 42.2227 421.035 43.4023 421.117 45.6484L421.086 53.3828H418.086L418.105 49.9414L413.09 49.918L413.078 53.3672H409.969Z" fill="#221E53"/>
<path d="M477.902 46.0352C477.902 46.3359 477.906 47.1172 477.906 47.1172H482.945C482.945 47.1172 482.941 46.3086 482.941 46.0742C482.941 44.8945 482.777 44.8516 482.051 44.8516C481.297 44.8516 479.023 44.8594 479.023 44.8594C478.101 44.8594 477.91 44.9883 477.902 46.0352ZM474.808 53.3906L474.82 45.6719C474.945 43.3555 476.223 42.168 478.644 42.0664L482.465 42.0742C484.691 42.2227 485.848 43.4023 485.933 45.6484L485.926 53.3828H482.926L482.933 49.9414L477.918 49.918V53.3906H474.808Z" fill="#221E53"/>
<path d="M429.644 46.8828L433.793 46.8906C434.426 46.8789 434.762 46.5742 434.797 45.9727C434.832 45.375 434.492 44.957 433.812 44.8516H429.629L429.644 46.8828ZM426.234 42.0938H434.047C436.449 42.4883 437.695 43.7695 437.785 45.9375C437.906 47.5273 437.402 48.7812 436.266 49.707L438.18 53.3906H434.414L432.566 49.8711H429.574L429.566 53.3906L426.183 53.3984L426.234 42.0938Z" fill="#221E53"/>
<path d="M453.535 53.3984H445.59C443.297 53.2656 442.152 51.3828 442.152 47.75C442.152 44.1211 443.379 42.2422 445.832 42.1211H453.558L453.551 44.8633L446.703 44.8711C446.121 44.8516 445.789 44.9961 445.707 45.3086L445.527 46.2773L453.281 46.2852L453.254 48.9961L445.562 48.9648L445.586 49.582C445.605 50.1211 445.926 50.4336 446.297 50.4766L453.539 50.4688L453.535 53.3984Z" fill="#221E53"/>
<path d="M458.98 53.3906L459.004 42.0859H466.664C468.875 42.0391 470.035 43.2422 470.152 45.6953L470.141 53.3906H467.137L467.195 45.8789C467.258 45.1445 466.953 44.8047 466.281 44.8516H462.109L462.098 53.3906H458.98Z" fill="#221E53"/>
<path d="M447.297 40.875H450.414L453.152 38.6523H448.691L447.297 40.875Z" fill="#221E53"/>
</g>
</g>
<defs>
<clipPath id="clip0_13_1148">
<rect width="485.934" height="94.0547" fill="white"/>
</clipPath>
<clipPath id="clip1_13_1148">
<rect width="361.883" height="94.0547" fill="white"/>
</clipPath>
<clipPath id="clip2_13_1148">
<rect width="76.0508" height="94.0547" fill="white" transform="translate(409.883)"/>
</clipPath>
</defs>
</svg>
